<?xml version="1.0" encoding="UTF-8" standalone="no"?>
<svg
   xmlns:dc="http://purl.org/dc/elements/1.1/"
   xmlns:cc="http://creativecommons.org/ns#"
   xmlns:rdf="http://www.w3.org/1999/02/22-rdf-syntax-ns#"
   xmlns:svg="http://www.w3.org/2000/svg"
   xmlns="http://www.w3.org/2000/svg"
   viewBox="0 0 2666.6667 3466.6667"
   height="3466.6667"
   width="2666.6667"
   xml:space="preserve"
   id="svg2"
   version="1.1"><metadata
     id="metadata8"><rdf:RDF><cc:Work
         rdf:about=""><dc:format>image/svg+xml</dc:format><dc:type
           rdf:resource="http://purl.org/dc/dcmitype/StillImage" /></cc:Work></rdf:RDF></metadata><defs
     id="defs6" /><g
     transform="matrix(1.3333333,0,0,-1.3333333,0,3466.6667)"
     id="g10"><g
       transform="scale(0.1)"
       id="g12"><g
         transform="scale(1.59509)"
         id="g14"><path
           id="path16"
           style="fill:#ffffff;fill-opacity:1;fill-rule:nonzero;stroke:none"
           d="M 12538.5,0 H 0 V 16300 H 12538.5 V 0" /></g><g
         transform="scale(1.1908)"
         id="g18"><path
           id="path20"
           style="fill:#eef7ff;fill-opacity:1;fill-rule:nonzero;stroke:none"
           d="m 3289.15,1580.37 c 0,0 -1873.48,5406.96 -438.59,6608.6 959.09,803.24 1975.68,-967.42 3189.04,-30.65 1080.23,833.89 -425.81,2934.68 1376.6,3484.28 1894.45,577.6 3446.5,-4100.43 5036.2,-3453.63 1928.9,784.93 3847.6,-808.37 2189.5,-6608.6 H 3289.15" /></g><path
         id="path22"
         style="fill:#dce6ff;fill-opacity:1;fill-rule:nonzero;stroke:none"
         d="m 2408.25,1926.8 c -1.04,2.7 -26.07,67.8 -68.14,189.1 l 94.2,32.7 c 41.45,-119.5 66.74,-185.3 66.99,-186 l -93.05,-35.8" /><g
         transform="scale(1.14528)"
         id="g24"><path
           id="path26"
           style="fill:#dce6ff;fill-opacity:1;fill-rule:nonzero;stroke:none"
           d="m 8146.16,13858.1 -16.93,85.4 c 119.19,22.8 244.78,24 360.99,5.3 l -13.91,-85.9 c -106.06,17.1 -221.07,16 -330.15,-4.8 z m 913.23,-301.5 c -87.93,81.4 -179.17,148 -271.2,198 l 41.56,76.5 c 98.32,-53.4 195.5,-124.3 288.84,-210.6 z m -1438.27,-66.2 -70.72,50.7 c 75.57,105.3 159.57,191.9 249.67,257.3 l 51.14,-70.4 c -82.54,-59.9 -159.96,-139.9 -230.09,-237.6 z m 1861.66,-470.2 c -63.74,103.8 -129.23,199.2 -194.63,283.6 l 68.81,53.3 c 67.41,-86.8 134.64,-184.9 200.04,-291.4 z m -2152.18,-145.4 -82.89,26.6 c 38.61,120.3 81.19,231.4 126.55,330.5 l 79.16,-36.2 c -43.94,-96 -85.26,-203.9 -122.82,-320.9 z m 2471.23,-469.1 c -49.77,110.8 -100.24,216 -150.01,312.7 l 77.45,39.9 c 50.47,-98.1 101.64,-204.8 151.93,-317 z m -2633.33,-204.1 -85.68,15.4 c 21.78,121.2 45.72,237.1 71.13,344.5 l 84.71,-20.1 c -25.04,-105.8 -48.66,-220.1 -70.16,-339.8 z m 2894.1,-440.8 c -42.2,114.2 -84.22,223.5 -125.08,324.8 l 80.78,32.6 c 41.1,-102.1 83.5,-212.2 126,-327.2 z m -2990.99,-248.4 -86.54,9.5 c 13.18,121.1 27.62,238.3 42.87,348.2 l 86.22,-12 c -15.14,-109 -29.45,-225.3 -42.55,-345.7 z M 10291.1,11102 c -39.3,119.5 -75.8,227.7 -111.5,330.6 l 82.4,28.5 c 35.7,-103.4 72.3,-211.9 111.8,-331.8 z m 3603.1,-120.5 -40,77.4 c 115,59.5 231.6,94.5 346.6,104.1 l 7.2,-86.7 c -103.5,-8.7 -209.1,-40.5 -313.8,-94.8 z m 933.9,-102.5 c -95.2,69.7 -194.3,121.8 -294.6,155.1 l 27.4,82.6 c 108.8,-36.1 216.1,-92.4 318.6,-167.4 z m -7817.18,-61.4 -86.84,6.1 c 8.52,122 17.65,239.5 27.12,349.2 l 86.74,-7.5 c -9.44,-109.2 -18.52,-226.3 -27.02,-347.8 z m 6367.58,-274.1 -65.9,56.8 c 83.8,97.2 167.4,182.5 248.1,253.5 l 57.5,-65.5 c -77.8,-68.3 -158.5,-150.7 -239.7,-244.8 z m -9979.7,-26.9 c -111.01,35 -219.98,46.1 -324.37,33 l -10.77,86.4 c 116.76,14.6 238.35,2.4 361.29,-36.4 z m 7106.4,-79.3 c -35.1,110.5 -70.3,221.1 -106.2,332.8 l 82.9,26.6 c 35.8,-111.8 71.1,-222.5 106.3,-333 z m 4776.4,-61 c -65.6,101.2 -134.7,193 -205.3,273.1 l 65.2,57.6 c 73.5,-83.3 145.2,-178.6 213.1,-283.4 z m -12772.37,-154 -63.58,59.5 c 89.34,95.5 182.06,173 275.6,230.2 l 45.46,-74.2 c -86.86,-53.1 -173.48,-125.6 -257.48,-215.5 z m 1459.61,-63.6 c -91.97,83.2 -182.48,154 -269.02,210.6 l 47.62,72.9 c 90.33,-59 184.46,-132.7 279.81,-219 z m 3001,-38.7 -86.94,4.5 c 6.59,129.4 12.79,243.7 18.94,349.4 l 86.9,-5.1 c -6.13,-105.4 -12.32,-219.6 -18.9,-348.8 z m 5998.06,-133.85 -72.8,47.75 c 70.9,107.8 136,202.5 199.3,289.4 l 70.4,-51.3 c -62.5,-85.6 -126.8,-179.1 -196.9,-285.85 z m -2246.4,-214.27 c -33,97.62 -68.9,206.41 -109.6,332.42 l 82.8,26.8 c 40.6,-125.7 76.4,-234.1 109.2,-331.28 z m 4873,-8.3 c -45.1,110.63 -93.2,216.37 -142.6,314.12 l 77.7,39.3 c 50.5,-99.8 99.5,-207.68 145.5,-320.5 z M 2121.06,9658.9 l -76.63,41.38 c 59.41,110.19 120.53,211.91 181.67,302.42 l 72.13,-48.77 c -59.51,-88.1 -119.13,-187.37 -177.17,-295.03 z m 2317,-7.34 c -77.66,95.87 -153.55,184.41 -225.58,263.08 l 64.22,58.76 c 73.2,-79.98 150.24,-169.82 228.99,-267.01 z m 2497.58,-229.99 -86.94,4.37 c 5.73,113.94 11.39,232.17 17.03,349.17 l 86.95,-4.19 c -5.64,-117.09 -11.31,-235.32 -17.04,-349.35 z m 5662.26,-26.28 -74.1,45.67 c 60.9,99.01 120.8,197.06 183.2,297.39 l 73.9,-45.93 c -62.2,-100.15 -122.1,-198.2 -183,-297.13 z m -1631.8,-281.42 c -41.3,97.62 -83.3,204.67 -128.4,327.26 l 81.8,30.04 c 44.5,-121.29 86,-227.02 126.7,-323.33 z m 4849.9,-5.76 c -31.9,114.21 -66,225.62 -101.4,331.19 l 82.5,27.68 c 35.9,-106.97 70.5,-219.78 102.7,-335.47 z M 4856.25,9095.62 c -74.29,104.35 -141.36,196.37 -205.02,281.51 l 69.7,52.13 c 64.08,-85.66 131.53,-178.22 206.23,-283.17 z m -3021.71,-65.83 -81.26,31.26 c 42.18,109.75 87.79,218.72 135.54,323.93 l 79.26,-35.97 c -47.04,-103.64 -91.96,-211.04 -133.54,-319.22 z m 10379.06,-222.13 -70.1,51.6 c 58.2,79.11 122.1,172.8 195.3,286.4 l 73.1,-47.15 c -74.1,-115.18 -139,-210.26 -198.3,-290.85 z m -5320.01,-85.57 -86.81,6.64 c 7.95,104.69 15.51,218.55 23.12,348.29 l 86.9,-5.15 c -7.63,-130.18 -15.22,-244.57 -23.21,-349.78 z M 5255.86,8523.1 c -66.02,94.82 -132.72,191.39 -199.19,287 l 71.47,49.68 c 66.47,-95.6 133.16,-192.17 199.17,-286.91 z m 6064.04,-24.97 c -79.3,87.14 -133.6,171.74 -202.4,296.52 l 76.5,41.47 c 64.6,-116.91 116.1,-197.77 189.4,-278.45 z m 4654,-65.4 c -22.4,115.69 -46.6,229.9 -72.1,339.39 l 84.7,19.74 c 25.7,-110.55 50.2,-225.8 72.9,-342.63 z M 1622.49,8370.82 1538.32,8393 c 30.05,113.86 63.15,227.19 98.38,336.86 l 82.88,-26.63 c -34.77,-108.19 -67.43,-220.03 -97.09,-332.41 z m 10041.91,-18.69 -12.5,86.18 c 82.7,11.97 171.4,64.44 270.8,160.49 l 60.5,-62.6 c -113.1,-109.15 -217.4,-169.4 -318.8,-184.07 z m -4850.29,-329.17 -85.77,14.84 c 17.47,100.85 32.86,213.31 47.03,343.85 l 86.55,-9.34 c -14.38,-132.46 -30.01,-246.67 -47.81,-349.35 z M 5667.4,7955.72 c -63.25,81.21 -131.85,173.24 -209.73,281.42 l 70.66,50.91 c 77.22,-107.31 145.17,-198.47 207.74,-278.71 z m 10416.8,-208.76 c -15.2,116.47 -32.1,232.16 -49.9,343.75 l 85.9,13.8 c 18,-112.46 34.9,-228.94 50.3,-346.29 z m -14605.73,-54.06 -85.91,14.15 c 19.09,116.22 40.86,232.17 64.7,344.64 l 85.16,-18.08 c -23.56,-111.15 -45.08,-225.8 -63.95,-340.71 z m 4682.05,-246.49 c -81.98,56.06 -169.02,134.29 -266.12,239.25 l 63.88,59.11 c 92.63,-100.06 174.87,-174.19 251.41,-226.58 z m 362.29,-73.17 -40.46,77.1 c 63.67,33.45 119.49,119.19 165.92,254.79 l 82.36,-28.2 c -54.62,-159.62 -122.61,-258.98 -207.82,-303.69 z M 16156.6,7055.5 c -9.4,116.66 -20.1,233.14 -31.9,346.21 l 86.5,9.08 c 11.9,-113.77 22.7,-230.95 32.2,-348.3 z m -14761.43,-51.08 -86.78,6.9 c 9.39,117.18 21.12,234.53 34.87,348.65 l 86.43,-10.39 c -13.61,-112.98 -25.23,-229.11 -34.52,-345.16 z M 16198,6361.17 c -4.6,117.01 -10.4,233.84 -17.1,347.43 l 86.9,5.15 c 6.7,-114.12 12.6,-231.56 17.2,-349.17 z m -14832.66,-50.2 -87.06,0.7 c 0.91,117.44 3.85,235.22 8.75,350.04 l 86.97,-3.66 c -4.85,-113.86 -7.75,-230.6 -8.66,-347.08 z M 16212.9,5665.45 c -0.5,116.65 -2,233.74 -4.4,347.95 l 87,1.92 c 2.5,-114.82 4,-232.35 4.5,-349.44 z M 1295.51,5611.84 c -6.52,117.08 -11.28,234.79 -14.15,349.78 l 87.03,2.18 c 2.84,-114.12 7.57,-230.86 14.04,-347.16 z M 16292,4967.1 l -87.1,2.36 c 3.2,116.74 5.4,233.83 6.7,348.04 l 87.1,-1.05 c -1.3,-114.65 -3.6,-232.17 -6.7,-349.35 z M 1354.41,4914.36 c -13.08,116.48 -24.64,233.66 -34.34,348.3 l 86.73,7.34 c 9.64,-113.86 21.13,-230.26 34.12,-345.95 z m 14909.19,-645.26 -86.9,4.72 c 6.3,116.39 11.9,233.39 16.5,347.69 l 87,-3.5 c -4.6,-114.73 -10.2,-232.17 -16.6,-348.91 z M 1450.45,4221.16 c -18.95,115.44 -36.59,231.83 -52.42,345.95 l 86.23,11.96 c 15.74,-113.42 33.26,-229.03 52.08,-343.76 z m 14766.65,-649.01 -86.8,6.81 c 9.2,116.13 17.7,232.96 25.4,347.34 l 86.8,-5.85 c -7.6,-114.73 -16.2,-231.91 -25.4,-348.3 z m -14636.94,-38.5 c -24.25,113.94 -47.44,229.37 -68.9,343.06 l 85.54,16.06 c 21.33,-112.98 44.38,-227.71 68.51,-340.96 z m 14573.94,-657.05 -86.6,8.82 c 11.8,115.6 22.9,232.26 33.3,346.64 l 86.7,-7.95 c -10.4,-114.64 -21.6,-231.56 -33.4,-347.51 z M 1741.4,2852.85 c -29.26,112.11 -57.68,226.41 -84.48,339.48 l 84.71,20.08 c 26.65,-112.46 54.91,-226.06 84,-337.56 z m 14334.6,-670.23 -86.4,10.56 c 14.2,115.61 27.9,232 40.8,345.95 l 86.4,-9.78 c -12.8,-114.21 -26.5,-230.86 -40.8,-346.73 z M 1933.94,2180 c -34.09,108.88 -67.83,221.69 -100.3,335.38 l 83.7,23.92 c 32.28,-112.98 65.81,-225.1 99.67,-333.28 L 1933.94,2180" /></g><g
         transform="scale(1.12637)"
         id="g28"><path
           id="path30"
           style="fill:#dce6ff;fill-opacity:1;fill-rule:nonzero;stroke:none"
           d="m 16276.2,1685.51 -87.6,12.07 c 8.1,58.69 16,117.1 23.7,175.25 l 87.7,-11.71 c -7.7,-58.24 -15.6,-116.84 -23.8,-175.61" /></g><g
         transform="scale(1.40044)"
         id="g32"><path
           id="path34"
           style="fill:#fcb4b4;fill-opacity:1;fill-rule:nonzero;stroke:none"
           d="m 5693.1,14359.4 c -213.84,3.7 -213.8,321.8 0.01,325.4 213.7,-3.7 213.67,-321.8 -0.01,-325.4 z m -493.66,0 c -213.72,3.7 -213.68,321.7 0,325.4 213.83,-3.7 213.8,-321.8 0,-325.4 z m -493.58,0 c -212.74,1 -212.73,324.5 0.01,325.4 213.82,-3.7 213.8,-321.8 -0.01,-325.4 z m 1977.89,646 c -63.4,0 -123.93,-12.4 -179.36,-34.6 v 1286.9 C 3924.65,16300 2525.64,14019.3 5125.9,13016.7 l -575.36,-908.3 1179.51,747.1 c 245.8,-44.8 505.5,-68.9 774.34,-68.9 v 1286.8 c 718.68,-249.4 939.4,896.7 179.36,932" /></g><g
         transform="scale(1.39811)"
         id="g36"><path
           id="path38"
           style="fill:#fcb4b4;fill-opacity:1;fill-rule:nonzero;stroke:none"
           d="m 9574.33,14383.3 c -214.22,3.7 -214.14,322.3 0,325.9 214.07,-3.6 214,-322.2 0,-325.9 z m -494.52,0 c -214.08,3.7 -214,322.3 0,325.9 213.14,-0.9 213.07,-324.9 0,-325.9 z m -494.39,0 c -214.21,3.7 -214.14,322.3 0,325.9 214.22,-3.6 214.15,-322.2 0,-325.9 z m 1600.88,163 c -56.1,1226.3 -1669.32,1753.7 -2772.88,1738.5 v -1288.9 c 872.82,251 871.96,-1150.4 0,-899.1 v -1288.9 c 269.29,0 529.5,24.2 775.61,69 l 1181.45,-748.3 -576.2,909.8 c 831.83,300.1 1392.02,862.9 1392.02,1507.9" /></g><g
         transform="scale(1.1399)"
         id="g40"><path
           id="path42"
           style="fill:#23659b;fill-opacity:1;fill-rule:nonzero;stroke:none"
           d="m 4145.37,15444.7 c -293.75,-17.5 -322.03,427.6 -29.35,448.5 293.73,17.4 322.01,-427.7 29.35,-448.5 z m 612.37,101.2 v 246 h -141.23 c -11.1,43.9 -28.03,85.5 -49.88,123.9 l 100.91,100.9 -173.92,173.9 -97.13,-97.1 c -43.57,27.4 -91.64,48.3 -142.82,61.2 v 145.3 h -245.98 v -145.3 c -47.53,-12 -92.37,-30.9 -133.44,-55.4 l -91.37,91.3 -173.93,-173.9 91.36,-91.4 c -24.55,-41 -43.41,-85.9 -55.46,-133.4 h -141.22 v -246 h 141.22 c 12.97,-51.2 33.84,-99.2 61.22,-142.8 l -97.12,-97.1 173.93,-173.9 100.91,100.9 c 38.44,-21.9 80.02,-38.8 123.9,-49.9 v -145.3 h 245.98 v 145.3 c 47.54,12 92.39,30.9 133.45,55.4 l 106.5,-106.4 173.92,173.9 -106.48,106.5 c 24.55,41 43.41,85.9 55.45,133.4 h 141.23" /></g><g
         transform="scale(1.4796)"
         id="g44"><path
           id="path46"
           style="fill:#23659b;fill-opacity:1;fill-rule:nonzero;stroke:none"
           d="m 10282.2,15150.7 c -394.68,-23.4 -432.66,574.7 -39.4,602.7 394.7,23.4 432.6,-574.7 39.4,-602.7 z m 822.8,136.1 v 330.5 h -189.7 c -14.9,59 -37.6,114.8 -67,166.5 l 135.5,135.6 -233.7,233.7 -130.4,-130.5 c -58.6,36.8 -123.2,64.8 -192,82.2 v 195.2 h -330.5 v -195.2 c -63.8,-16.1 -124.05,-41.5 -179.26,-74.5 l -122.74,122.8 -233.71,-233.7 122.73,-122.8 c -32.98,-55.2 -58.32,-115.4 -74.48,-179.3 h -189.78 v -330.5 h 189.78 c 17.37,-68.8 45.42,-133.3 82.26,-191.9 l -130.51,-130.5 233.71,-233.7 135.58,135.6 c 51.63,-29.4 107.52,-52.1 166.42,-67 v -195.2 h 330.5 v 195.2 c 63.9,16.2 124.2,41.5 179.3,74.5 l 143.1,-143.1 233.7,233.7 -143.1,143.1 c 33,55.2 58.4,115.4 74.6,179.3 h 189.7" /></g><g
         transform="scale(1.20335)"
         id="g48"><path
           id="path50"
           style="fill:#f49f9f;fill-opacity:1;fill-rule:nonzero;stroke:none"
           d="m 7360.9,15560 c 70.13,0 139.74,1 208.83,3.2 v -682.3 c -312.88,0 -615.12,28 -901.18,80.1 l -1372.69,-869.4 669.59,1057.1 c -691.67,260.4 -1187.29,608.9 -1472.57,1151.3 686.61,-452.4 1716.58,-740 2868.02,-740" /></g><g
         transform="scale(1.35348)"
         id="g52"><path
           id="path54"
           style="fill:#f49f9f;fill-opacity:1;fill-rule:nonzero;stroke:none"
           d="m 9890.09,14857.7 c -221.28,3.8 -221.2,332.9 0,336.6 221.11,-3.7 221.11,-332.8 0,-336.6 z m 632.11,168.3 c 0,498 -323.3,948.8 -845.71,1274 663.51,-1161.2 -486.08,-2036.7 -2018.58,-2360.3 v -709.4 c 278.18,0 546.97,25 801.2,71.3 l 1220.41,-773 -595.2,939.8 c 859.26,310 1437.88,891.4 1437.88,1557.6" /></g><g
         transform="scale(1.39926)"
         id="g56"><path
           id="path58"
           style="fill:#f9c0c0;fill-opacity:1;fill-rule:nonzero;stroke:none"
           d="m 6509.91,16271.5 v -320.3 c -2033.42,-338.7 -2712.15,-1100 -2712.15,-1100 234.07,810.7 1356.08,1448.8 2712.15,1420.3" /></g><g
         transform="scale(1.39681)"
         id="g60"><path
           id="path62"
           style="fill:#f9c0c0;fill-opacity:1;fill-rule:nonzero;stroke:none"
           d="m 8593.46,16137.3 c -424.11,0 -814.5,-17 -1173.1,-47.1 v 209.8 c 419.24,0 816.79,-58.3 1173.1,-162.7" /></g><g
         transform="scale(1.4796)"
         id="g64"><path
           id="path66"
           style="fill:#23659b;fill-opacity:1;fill-rule:nonzero;stroke:none"
           d="m 2868.65,15114.4 c -443.84,7.6 -443.77,667.8 0.02,675.3 443.84,-7.6 443.76,-667.8 -0.02,-675.3 z m 847.96,217.9 v 239.5 h -183.44 c -6.71,37.5 -16.37,73.9 -28.98,108.9 l 158.69,91.6 -119.76,207.4 -158.89,-91.7 c -24.29,28.7 -50.93,55.3 -79.63,79.6 l 91.74,158.9 -207.42,119.8 -91.62,-158.7 c -35.03,12.6 -71.44,22.3 -108.89,29 v 183.4 h -239.5 v -183.4 c -37.45,-6.7 -73.87,-16.4 -108.9,-29 l -91.62,158.7 -207.42,-119.8 91.74,-158.9 c -28.7,-24.3 -55.33,-50.9 -79.63,-79.6 l -158.89,91.7 -119.75,-207.4 158.69,-91.6 c -12.61,-35 -22.28,-71.4 -28.98,-108.9 H 2020.7 v -239.5 h 183.45 c 6.7,-37.4 16.37,-73.9 28.98,-108.9 l -158.69,-91.6 119.75,-207.4 158.89,91.7 c 24.3,-28.7 50.93,-55.3 79.63,-79.6 l -91.74,-158.9 207.42,-119.8 91.62,158.7 c 35.03,-12.6 71.45,-22.2 108.9,-29 v -183.4 h 239.5 v 183.4 c 37.45,6.8 73.86,16.4 108.89,29 l 91.62,-158.7 207.42,119.8 -91.74,158.9 c 28.7,24.3 55.34,50.9 79.63,79.6 l 158.89,-91.7 119.76,207.4 -158.69,91.6 c 12.61,35 22.27,71.5 28.98,108.9 h 183.44" /></g><g
         transform="scale(1.32493)"
         id="g68"><path
           id="path70"
           style="fill:#23659b;fill-opacity:1;fill-rule:nonzero;stroke:none"
           d="m 13237,15431.3 c -325.2,5.5 -325.2,489.3 0,494.8 325.2,-5.6 325.2,-489.3 0,-494.8 z m 621.3,159.6 v 175.5 h -134.4 c -4.9,27.5 -12,54.1 -21.2,79.8 l 116.2,67.2 -87.7,151.9 -116.4,-67.2 c -17.8,21 -37.3,40.6 -58.4,58.4 l 67.3,116.4 -152,87.7 -67.2,-116.2 c -25.7,9.2 -52.3,16.3 -79.8,21.2 v 134.4 h -175.5 v -134.4 c -27.4,-4.9 -54.1,-12 -79.7,-21.2 l -67.1,116.2 -152,-87.7 67.2,-116.4 c -21.1,-17.8 -40.6,-37.4 -58.4,-58.4 l -116.4,67.2 -87.8,-151.9 116.3,-67.2 c -9.3,-25.7 -16.3,-52.3 -21.2,-79.8 h -134.4 v -175.5 h 134.4 c 4.9,-27.4 11.9,-54.1 21.2,-79.7 l -116.3,-67.2 87.8,-152 116.4,67.3 c 17.8,-21.1 37.3,-40.6 58.4,-58.4 l -67.2,-116.4 152,-87.8 67.1,116.3 c 25.6,-9.2 52.3,-16.3 79.7,-21.2 v -134.4 h 175.5 v 134.4 c 27.5,4.9 54.1,12 79.8,21.2 l 67.2,-116.3 152,87.8 -67.3,116.4 c 21.1,17.8 40.6,37.3 58.4,58.4 l 116.4,-67.3 87.7,152 -116.2,67.2 c 9.2,25.6 16.3,52.3 21.2,79.7 h 134.4" /></g><g
         transform="scale(1.27443)"
         id="g72"><path
           id="path74"
           style="fill:#f49f9f;fill-opacity:1;fill-rule:nonzero;stroke:none"
           d="m 2112.17,15005.4 c -615.6,10.5 -615.5,926.2 0.02,936.6 615.57,-10.5 615.48,-926.2 -0.02,-936.6 z m 826.31,406.9 v 122.8 H 2829.9 c -7.32,86.7 -30,169.1 -65.33,244.3 l 93.92,54.2 -61.43,106.4 -94.01,-54.2 c -48.62,69.6 -109.22,130.1 -178.8,178.8 l 54.27,94 -106.4,61.4 -54.21,-93.9 c -75.25,35.3 -157.58,58 -244.31,65.3 v 108.6 h -122.86 v -108.6 c -86.73,-7.3 -169.06,-30 -244.3,-65.3 l -54.23,93.9 -106.4,-61.4 54.28,-94 c -69.59,-48.7 -130.18,-109.2 -178.81,-178.8 l -94,54.2 -61.43,-106.4 93.92,-54.2 c -35.32,-75.2 -58.01,-157.6 -65.34,-244.3 h -108.57 v -122.8 h 108.57 c 7.33,-86.8 30.02,-169.1 65.34,-244.3 l -93.92,-54.3 61.43,-106.4 94,54.3 c 48.63,-69.6 109.22,-130.2 178.81,-178.8 l -54.28,-94 106.4,-61.4 54.23,93.9 c 75.24,-35.3 157.57,-58 244.3,-65.3 v -108.6 h 122.86 v 108.6 c 86.73,7.3 169.06,30 244.31,65.3 l 54.21,-93.9 106.4,61.4 -54.27,94 c 69.58,48.6 130.18,109.2 178.8,178.8 l 94.01,-54.3 61.43,106.4 -93.92,54.3 c 35.33,75.2 58.01,157.5 65.33,244.3 h 108.58" /></g><g
         transform="scale(1.19733)"
         id="g76"><path
           id="path78"
           style="fill:#f49f9f;fill-opacity:1;fill-rule:nonzero;stroke:none"
           d="m 13142.1,14418.2 c -894.7,15.3 -894.6,1346.3 0,1361.4 894.9,-15.2 894.7,-1346.2 0,-1361.4 z m 1201.1,591.4 v 178.6 h -157.8 c -10.6,126.1 -43.6,245.8 -95,355.1 l 136.6,78.8 -89.3,154.7 -136.6,-78.9 c -70.8,101.2 -158.8,189.2 -260,259.9 l 78.9,136.6 -154.6,89.3 -78.8,-136.5 c -109.5,51.4 -229.1,84.3 -355.2,95 v 157.8 h -178.5 v -157.8 c -126.1,-10.7 -245.7,-43.6 -355.2,-95 l -78.7,136.5 -154.7,-89.3 78.9,-136.6 c -101.2,-70.7 -189.2,-158.7 -259.9,-259.9 l -136.6,78.9 -89.4,-154.7 136.6,-78.8 c -51.4,-109.3 -84.4,-229 -95,-355.1 h -157.8 v -178.6 h 157.8 c 10.6,-126 43.6,-245.7 95,-355.1 l -136.6,-78.8 89.4,-154.6 136.6,78.9 c 70.7,-101.2 158.7,-189.3 259.9,-259.9 l -78.9,-136.7 154.7,-89.3 78.7,136.6 c 109.5,-51.4 229.1,-84.4 355.2,-95 v -157.8 h 178.5 v 157.8 c 126.1,10.6 245.7,43.6 355.2,95 l 78.8,-136.6 154.6,89.3 -78.9,136.7 c 101.2,70.6 189.2,158.7 260,259.9 l 136.6,-78.9 89.3,154.6 -136.6,78.8 c 51.4,109.4 84.4,229.1 95,355.1 h 157.8" /></g><path
         id="path80"
         style="fill:#163260;fill-opacity:1;fill-rule:nonzero;stroke:none"
         d="m 5675.31,15014.6 c 0,0 -1325.65,-171.8 -789.48,-3345.3 h 1922.43 c 0,0 102.01,3057 -1132.95,3345.3" /><path
         id="path82"
         style="fill:#8a9edd;fill-opacity:1;fill-rule:nonzero;stroke:none"
         d="M 9881.83,6899.9 8012.67,6211.7 c -32.13,-11.9 -67.79,4.6 -79.63,36.7 18.42,39.3 -633.71,1522.8 -499.97,1516.1 1.66,5 1872.23,687.1 1875.91,691.1 32.14,11.9 67.8,-4.6 79.63,-36.7 l 529.97,-1439.4 c 11.84,-32.1 -4.62,-67.8 -36.75,-79.6" /><path
         id="path84"
         style="fill:#7689d6;fill-opacity:1;fill-rule:nonzero;stroke:none"
         d="M 9881.83,6899.9 8012.67,6211.7 c -32.13,-11.9 -67.79,4.6 -79.63,36.7 17.59,36.7 -633.1,1524.8 -499.93,1516.1 5.06,-0.9 7.75,-1.4 7.75,-1.4 0,0 598.95,-1417.5 2453.81,-734.6 l 7.39,-4.1 c 20.01,-41.2 36.26,-104.7 -20.23,-124.5" /><path
         id="path86"
         style="fill:#ffffff;fill-opacity:1;fill-rule:nonzero;stroke:none"
         d="m 9811.16,6997.8 -1757.6,-647.2 -492.48,1337.5 1757.61,647.2 492.47,-1337.5" /><path
         id="path88"
         style="fill:#f5faff;fill-opacity:1;fill-rule:nonzero;stroke:none"
         d="m 9811.16,6997.8 -1757.6,-647.2 -398.23,1081.6 c 303.57,-362.5 959.62,-841.4 2155.47,-433.4 l 0.36,-1" /><path
         id="path90"
         style="fill:#fcb4b4;fill-opacity:1;fill-rule:nonzero;stroke:none"
         d="m 9731.57,7757.5 c 33.61,12.9 53.24,-40.1 19.13,-52.1 -33.55,-13 -53.08,40.2 -19.13,52.1 z m 172.45,-223.3 c -41.65,112.9 -125.18,340 -166.71,452.9 -20.5,60.8 -109.73,-0.7 -145.88,-8.3 l -57.98,157.2 c -8.11,22.2 -32.94,33.2 -54.59,25.2 l -84.54,-31.2 c -30.2,-8.1 -70.43,-27.4 -55.6,-65.8 0,0.1 311.91,-847.1 311.91,-847.1 13.46,-38.2 56.87,-28 84.99,-14.1 32.01,17.9 133.13,26.9 109.86,85.8 l -57.86,157.2 c 32.55,17.7 140.17,28.6 116.4,88.2" /><path
         id="path92"
         style="fill:#f49f9f;fill-opacity:1;fill-rule:nonzero;stroke:none"
         d="m 9820.21,7234.2 c -38.39,-4.7 -147.7,-83.5 -169.56,-17.1 l -311.94,847.2 c -8.12,22 3.18,46.5 25.24,54.6 0,0 216.07,-704 540.09,-584.7 23.93,-59.5 -84.11,-70.6 -116.47,-88.2 l 57.88,-157.2 c 8.12,-22.1 -3.18,-46.5 -25.24,-54.6" /><path
         id="path94"
         style="fill:#f9c0c0;fill-opacity:1;fill-rule:nonzero;stroke:none"
         d="m 9820.66,7760.7 c -91.26,247.8 -229.27,218.1 -229.27,218.1 36.32,7.6 125.29,69.2 145.88,8.4 l 83.39,-226.5" /><path
         id="path96"
         style="fill:#e57d61;fill-opacity:1;fill-rule:nonzero;stroke:none"
         d="m 9365.92,10837.3 c 0,0 226.63,31.9 369.33,23.5 l -161.16,-322.3 c 0,0 -318.97,152.7 -334.08,188 -15.11,35.3 125.91,110.8 125.91,110.8" /><path
         id="path98"
         style="fill:#f99370;fill-opacity:1;fill-rule:nonzero;stroke:none"
         d="m 5178.65,1986 c -12.37,-53 -59.76,-95 -118.2,-95.9 h -581.39 c -83.07,0.1 -141.51,83.9 -117.52,160.4 44.92,150.9 148.65,301.4 127.99,463.1 -4.24,316.8 1.18,955.7 0.22,1163.1 h 655.35 c -12.66,-177.6 -72.7,-883.3 -92.75,-1186.3 -25.06,-185.5 130.98,-328.9 126.3,-504.4" /><path
         id="path100"
         style="fill:#f99370;fill-opacity:1;fill-rule:nonzero;stroke:none"
         d="m 6027.23,11942.1 c -155.32,-386.3 -258.34,-1006.9 202.95,-1222.7 696.56,-276.8 1505.74,-233.2 2218.3,-25.8 39.73,12.3 80.04,26.2 118.92,40.4 2.15,0.7 4.94,1.8 5.55,1.8 l 77.59,2.8 c 187.86,13.1 262.74,-259 98.16,-344.9 -19.88,-10.2 -54.11,-31.8 -73.78,-41.4 -825.72,-435.9 -2280.82,-759.1 -3106.78,-198.7 -671.6,460.4 -735.28,1390.5 -537.78,2112.7 211.49,678.5 1223.87,349.9 996.87,-324.2" /><path
         id="path102"
         style="fill:#f99370;fill-opacity:1;fill-rule:nonzero;stroke:none"
         d="m 8317.52,1986 c -4.61,-50.6 -46.93,-95.9 -104.9,-95.9 H 6759.74 c -15.48,147.8 34.38,282.9 26.34,444.8 0.11,0.1 0.11,0.1 0,0.2 6.62,430.1 -81.27,952.4 -112.57,1341.6 h 835.01 c -9.28,-166 -130.07,-859.6 -132.16,-1156.7 88.59,-334.2 571.78,-230.4 793.58,-361.6 66.77,-36.6 151.36,-90.3 147.58,-172.4" /><path
         id="path104"
         style="fill:#eb5648;fill-opacity:1;fill-rule:nonzero;stroke:none"
         d="m 8324.84,1986 c -1.01,-50.6 -43.22,-95.9 -98.94,-95.9 H 6759.74 c -17.37,147.9 21.28,295.9 26.34,444.8 0.11,0.1 0.11,0.1 0,0.2 1.91,37.9 2.14,75.6 -0.34,113.2 472.67,-571.1 1322.95,-36.9 1528.97,-418.7 h 0.11 c 7.08,-14.1 10.27,-29.3 10.02,-43.6" /><path
         id="path106"
         style="fill:#eb5648;fill-opacity:1;fill-rule:nonzero;stroke:none"
         d="m 5180.9,1986 c -12.04,-54.1 -61.35,-96 -120.45,-95.9 h -581.39 c -168.63,11.8 -128.8,196.8 -62.13,303 -0.01,0 324.29,263.4 705.55,0.4 32.47,-62.4 69.04,-135.9 58.42,-207.5" /><path
         id="path108"
         style="fill:#f99370;fill-opacity:1;fill-rule:nonzero;stroke:none"
         d="m 6208.16,12812.3 c 732.08,-154.4 1171.23,-875.7 1359.13,-1546.9 120.31,-420.2 141.31,-859.9 240.29,-1284.4 113.29,-534.5 266.07,-1062.7 474.7,-1568.1 95.81,-226.5 -165.71,-423.1 -336.86,-234.2 -344.92,431.9 -612.42,920.5 -837.6,1423.8 -181.79,394.6 -305.96,817.1 -443.02,1228.2 -126.23,331 -293.79,676 -581.27,865.5 -28.24,17.7 -53.23,29.9 -78.62,39.3 9.6,-2.8 22.13,-4.1 31.95,-6.1 -707.79,115.3 -537.06,1191.8 171.3,1082.9" /><path
         id="path110"
         style="fill:#e8c0a6;fill-opacity:1;fill-rule:nonzero;stroke:none"
         d="m 8225.22,8545.5 c 0,0 -143.63,-175.1 -370.22,-256.3 -251.8,328.4 -579.83,752.2 -778.17,1128.8 -312.27,876.2 -652.65,2644.2 -828.81,3407.1 1539.44,-257 1507.95,-3045.3 1977.2,-4279.6" /><path
         id="path112"
         style="fill:#d1a68f;fill-opacity:1;fill-rule:nonzero;stroke:none"
         d="m 7832.14,8700.6 c -7.31,-87.4 -76.65,-143.9 -154.66,-180 -75.53,100.5 -167.05,224.6 -257.44,353 l -174.36,2838.7 c 0,0 494.5,-602.9 557.65,-2319.4 0,0 46.04,-484.4 28.81,-692.3" /><path
         id="path114"
         style="fill:#f99370;fill-opacity:1;fill-rule:nonzero;stroke:none"
         d="m 8784.6,8107.8 c -10.09,-24.4 -37.2,-34 -58.76,-21.5 -64.13,34 -129.63,55.3 -199.04,72.1 l -516.3,-193.9 c 0,0 -89.4,73.8 -88.34,249.8 0.61,102.3 252.9,243.7 340.75,213.7 82.36,-28.1 185.69,-89.8 222.04,-113.9 62.17,-22.6 329.25,-119.9 299.65,-206.3" /><path
         id="path116"
         style="fill:#1d3f70;fill-opacity:1;fill-rule:nonzero;stroke:none"
         d="m 4349.66,2555.1 c 0,0 472.4,-175.1 800.73,-31.8 199.78,1067.1 778.68,3220.3 975.64,5299.8 0.1,84.1 651.9,-2925 485.21,-5232.1 208.38,-73.8 661.33,-186.4 871.83,-11.9 151.95,1086.3 559.04,4164.8 -71.72,7427.7 0,0 -1339.39,-168.6 -2525.53,140.4 0,0 -517.61,-892.6 -387.11,-2801.8 108.72,-1853 27.31,-3697.4 -149.05,-4790.3" /><path
         id="path118"
         style="fill:#e57d61;fill-opacity:1;fill-rule:nonzero;stroke:none"
         d="m 13763.4,12609.7 c -178.4,-265.5 -479.2,-663.7 -669.1,-927 -441,-597.6 -753.3,-1153.5 -1517.4,-1376.6 -457.5,-139.1 -929,-128.2 -1378.3,-26.7 -214.41,49.1 -420.29,117.7 -615.12,207.5 -98.35,45.3 -141.35,161.8 -96.04,260.1 33.59,72.9 106.25,115.4 181.67,114.1 726.99,-9.9 1615.29,44.4 2040.39,714.9 44.7,75.8 85.7,153.9 130.5,229.7 311.2,531 669.1,1043.1 1110.6,1475.3 460.7,488 1198.8,-131.1 812.8,-671.3" /><path
         id="path120"
         style="fill:#1d3f70;fill-opacity:1;fill-rule:nonzero;stroke:none"
         d="m 5533.59,9392.9 c 0,0 -131.1,-423.3 -647.76,-711.9 l 257.87,-264.8 c 19.61,28 534.15,415.6 678.87,736.5 l -288.98,240.2" /><path
         id="path122"
         style="fill:#163860;fill-opacity:1;fill-rule:nonzero;stroke:none"
         d="m 4488.13,2688 c 102.94,908.5 306.9,2864.6 229.78,4104.2 -41.21,1256 137.57,1890.8 139.38,1897.1 23.08,41.2 460.56,234.3 648.53,714.1 12.7,34.9 69.92,15.9 55.57,-21 C 5396.6,8944.7 4987.53,8702.9 4911.2,8660.9 4633.78,7608.9 4928.28,3827.6 4488.13,2688" /><path
         id="path124"
         style="fill:#eb5648;fill-opacity:1;fill-rule:nonzero;stroke:none"
         d="m 7521.8,9392.9 c -690.4,-433.4 -2348.39,-204.2 -2904.63,-43.6 -126.72,341.2 209.47,796 141.03,1228.2 -159.81,1010.4 350.94,2012.1 951.36,2227.3 -0.22,2.9 -0.46,54.8 -0.73,52.5 l 539.19,-32.2 c 272.9,-194.4 512.44,-411.7 775.91,-785.7 398.34,-564.7 98.89,-841.4 214.88,-1377.4 23.12,-259.6 447,-1146.5 282.99,-1269.1" /><path
         id="path126"
         style="fill:#d8b09a;fill-opacity:1;fill-rule:nonzero;stroke:none"
         d="m 4164.89,8700.6 c 0.11,-0.1 0.33,-0.2 0.45,-0.2 -0.45,-1.4 -0.56,-1.4 -0.45,0.2" /><path
         id="path128"
         style="fill:#ce3932;fill-opacity:1;fill-rule:nonzero;stroke:none"
         d="m 7521.8,9392.9 c -582.16,-306.7 -1350.59,-279 -1974.61,-211.2 l 251.58,150.7 c 0,0 929.78,-91.8 1759.05,232 12.16,-87.8 4.17,-149.6 -36.02,-171.5" /><path
         id="path130"
         style="fill:#d8b09a;fill-opacity:1;fill-rule:nonzero;stroke:none"
         d="m 5710.07,12805 c 0,0 -0.56,-0.2 -1.8,-0.6 0,4.1 0.56,4.5 1.8,0.6" /><path
         id="path132"
         style="fill:#e8c0a6;fill-opacity:1;fill-rule:nonzero;stroke:none"
         d="m 5889.61,10144.3 c -28.94,-406 -180.39,-1510.4 -225.81,-1649.4 0,0 -894.89,-166.8 -1498.46,205.5 17.05,53.3 286.63,1559.1 334.77,2240.7 56.12,1042.9 908.24,1811.6 1208.16,1863.3 4.82,-201.7 269.89,-1933.5 181.34,-2660.1" /><path
         id="path134"
         style="fill:#1d3f70;fill-opacity:1;fill-rule:nonzero;stroke:none"
         d="m 12901.1,11328.4 c -356.4,-1638.9 -2527.7,-1275.1 -3218.14,-887.2 122.62,161 52.29,419.6 52.29,419.6 2399.45,74.4 2092.75,2142.1 3357.25,2569.5 0,0 93.1,-1176.9 -191.4,-2101.9" /><path
         id="path136"
         style="fill:#e8c0a6;fill-opacity:1;fill-rule:nonzero;stroke:none"
         d="m 6248.06,12825.1 c 0,0 662.19,-354.6 871.45,-1268.7 117.11,-511.6 -36.51,-922.7 63.07,-1348.9 216.65,-927.3 216.65,-1598.7 216.65,-1598.7 0,0 217.51,-6.8 371.57,136.8 0,0 34.5,3460 -1522.74,4079.5" /><path
         id="path138"
         style="fill:#f99370;fill-opacity:1;fill-rule:nonzero;stroke:none"
         d="m 14375,1981.3 22.9,11.2 c 0,-15 19.8,-67.1 35.8,-67.1 l 676.7,-13 c 16,0 25.9,28.2 25.9,43.2 l 57.7,15.5 c 0,94.8 -8.4,129.2 -53.1,202.7 -164.5,202.3 31.7,1120.1 26.2,1359.6 32.4,66.6 -710.3,13.3 -723.1,29.5 -17,0 -30.3,-13.5 -29,-29.3 -7.4,-238 177.7,-1158.8 20.2,-1359.4 -44.8,-73.5 -60.4,-98 -60.2,-192.9" /><path
         id="path140"
         style="fill:#f99370;fill-opacity:1;fill-rule:nonzero;stroke:none"
         d="m 11441.6,1890.1 h 1347.9 c 115.7,4.2 117.6,113.6 95.1,204 -74.3,314.1 57,1035.3 81.2,1358.3 6.5,59.1 -43,110.5 -106.6,110.5 -981.7,3.7 -677.3,105.8 -593,-920.5 41.8,-380.2 -386.2,-406 -643.1,-456.6 -105.6,-24.8 -218.3,-64 -270,-138.6 -48.5,-66.7 2.3,-157.1 88.5,-157.1" /><path
         id="path142"
         style="fill:#103663;fill-opacity:1;fill-rule:nonzero;stroke:none"
         d="m 12935.9,2021.1 c -4,-64.6 -37.7,-132.4 -113,-131 h -1398.1 c -349.3,100.8 213.7,554.8 839.8,519.3 49.7,-11.2 233.8,-45.1 512.8,-8.9 153.3,16.8 165.2,-247.5 158.5,-379.4" /><path
         id="path144"
         style="fill:#103663;fill-opacity:1;fill-rule:nonzero;stroke:none"
         d="m 15086.8,1890.1 h -597.6 c -288.1,30.4 -84.6,562 298.7,522.6 385.6,46.7 585.8,-494.4 298.9,-522.6" /><path
         id="path146"
         style="fill:#d1a68f;fill-opacity:1;fill-rule:nonzero;stroke:none"
         d="M 5889.61,10144.3 C 5874.42,9964 5852.54,9762.1 5828.15,9562.8 4653.34,9804 4501.9,10927 4500.11,10941.1 c 25.55,220.6 69.45,416.5 125.84,590 l 1263.66,-1386.8" /><path
         id="path148"
         style="fill:#e8c0a6;fill-opacity:1;fill-rule:nonzero;stroke:none"
         d="m 11758.1,2066.4 c -11.1,0 -21.7,6.4 -26.4,17.3 -53.7,124 -153.9,163.2 -155,163.6 -34.8,12.5 -14.7,67.2 20.1,53.9 5,-1.9 123.8,-47.2 187.7,-194.7 8.4,-18.4 -6.3,-40.5 -26.4,-40.1" /><path
         id="path150"
         style="fill:#e8c0a6;fill-opacity:1;fill-rule:nonzero;stroke:none"
         d="m 11988.9,2092.5 c -12,0 -23.3,7.6 -27.2,19.7 -47.2,142.6 -181.3,209.8 -182.6,210.5 -33.6,15.8 -8.1,68.5 25.2,51.7 6.4,-3.1 157,-78 211.9,-244.2 6.4,-18.1 -8.1,-38.1 -27.3,-37.7" /><path
         id="path152"
         style="fill:#e8c0a6;fill-opacity:1;fill-rule:nonzero;stroke:none"
         d="m 12251.7,2122.7 c -11.7,0 -22.7,7.2 -27,18.7 -55.6,149.8 -183.4,230.2 -184.7,231 -31.9,19.1 -1.2,69.1 30.3,48.9 5.9,-3.7 145.9,-91.8 208.3,-259.8 7.2,-18.3 -7.4,-39.2 -26.9,-38.8" /><path
         id="path154"
         style="fill:#163860;fill-opacity:1;fill-rule:nonzero;stroke:none"
         d="m 12901.1,11328.4 c -196.7,-805.4 -826.9,-1190.7 -1570.9,-1215 v 0.1 c 0,0 433,193.3 562.7,948.8 129.6,755.4 622.9,1540.7 622.9,1540.7 l 385.3,-1274.6" /><path
         id="path156"
         style="fill:#e8c0a6;fill-opacity:1;fill-rule:nonzero;stroke:none"
         d="m 15002.2,2245.4 c -224.5,120.6 -432.2,-38.8 -460.3,17.5 -6.2,14.7 0.6,31.5 15.2,37.7 10.5,4.5 259.6,108.1 459,-1.2 26,-13.2 14.7,-55.1 -13.9,-54" /><path
         id="path158"
         style="fill:#0f2e54;fill-opacity:1;fill-rule:nonzero;stroke:none"
         d="m 11326.9,2021.1 h 1609 c -5.9,-46 -19.5,-90.7 -44.1,-131 h -1467 c -72.3,-0.1 -123.5,67.6 -97.9,131" /><path
         id="path160"
         style="fill:#0f2e54;fill-opacity:1;fill-rule:nonzero;stroke:none"
         d="m 15086.8,1890.1 h -597.6 c -76,0 -137.2,59.8 -132.5,131 h 862.6 c 4.5,-71.3 -56.5,-131 -132.5,-131" /><path
         id="path162"
         style="fill:#8c4225;fill-opacity:1;fill-rule:nonzero;stroke:none"
         d="m 13107.3,14966.9 c 0,0 -76.4,430.2 301.2,569.5 l 238.5,-179.2 -539.7,-390.3" /><path
         id="path164"
         style="fill:#e8c0a6;fill-opacity:1;fill-rule:nonzero;stroke:none"
         d="m 15261.4,2604.1 c 0,0 -637.4,-144.9 -965.7,10.8 -170.9,1003.4 -645.3,3797.7 -810.6,5712.4 -6.3,-111.7 -353.4,-4614.3 -419.5,-5712.4 -227,-71.1 -682.7,-156.6 -937.7,15.4 -114.5,1155.7 -482.5,4961.4 71.8,8069.3 0,0 1518.8,-158.2 2705,177.4 326.3,-984 413,-7088.6 356.7,-8272.9" /><path
         id="path166"
         style="fill:#d1a68f;fill-opacity:1;fill-rule:nonzero;stroke:none"
         d="m 12373.2,2729.7 c -230.5,2199.6 -102.2,4989.2 150.3,6350.8 75.9,-29.2 -87.9,-727.3 -135.3,-1895 -97.9,-1026.9 -37.8,-2750.3 -15,-4455.8" /><path
         id="path168"
         style="fill:#d1a68f;fill-opacity:1;fill-rule:nonzero;stroke:none"
         d="m 14759.9,2729.7 c -202.4,3430.5 -736.9,6602.3 -685.2,6652 72.1,-10.6 609.7,-3235.1 685.2,-6652" /><path
         id="path170"
         style="fill:#f99370;fill-opacity:1;fill-rule:nonzero;stroke:none"
         d="m 13363,13525.3 c -33.1,289.1 12.1,705.9 52.4,877.6 21.2,92.8 87.6,162.9 162.1,186.2 190.8,66.2 416.7,-96.3 358,-311.4 -17.3,10.9 -72.7,-602.2 -34.4,-772.5 503.5,-151.1 -1011,-647.8 -538.1,20.1" /><path
         id="path172"
         style="fill:#e57d61;fill-opacity:1;fill-rule:nonzero;stroke:none"
         d="m 13940.7,14305.6 c -1.4,-9.3 -3,-18.7 -5.2,-27.9 -12.5,8.3 -47.4,-330 -47.7,-575.6 -230.7,-104.9 -488,-58.7 -535.1,-49.1 12,332 -22.2,852.4 224.8,936.1 180.2,77 394.9,-87.1 363.2,-283.5" /><path
         id="path174"
         style="fill:#f99370;fill-opacity:1;fill-rule:nonzero;stroke:none"
         d="m 14303.2,14531.8 c -38.8,-240.4 -119.9,-511.4 -309.8,-670.4 h -0.3 c -77.2,-64.1 -170,-104.2 -269.3,-123.8 -561,-156.9 -1218.8,495.2 -780.5,970.2 163.1,152.6 186.8,396.8 320.1,554.4 184.7,267.9 589.9,254.1 808.7,35.5 197.8,-197.6 265.4,-469.9 231.1,-765.9" /><path
         id="path176"
         style="fill:#f9f8f3;fill-opacity:1;fill-rule:nonzero;stroke:none"
         d="m 13146.7,14253.4 315.2,161 c 28.8,-191.3 -170.7,-313.6 -315.2,-161" /><path
         id="path178"
         style="fill:#c16256;fill-opacity:1;fill-rule:nonzero;stroke:none"
         d="m 13385.7,14680 c -21.9,41.8 44.2,75.4 64.9,33 22,-41.8 -44.1,-75.4 -64.9,-33" /><path
         id="path180"
         style="fill:#c16256;fill-opacity:1;fill-rule:nonzero;stroke:none"
         d="m 13079.8,14731.5 c -22,41.7 44.1,75.3 64.9,32.9 22,-41.7 -44.1,-75.3 -64.9,-32.9" /><path
         id="path182"
         style="fill:#e57d61;fill-opacity:1;fill-rule:nonzero;stroke:none"
         d="m 14303.2,14531.8 c -38.8,-240.4 -119.9,-511.4 -309.8,-670.4 h -0.3 c -15.8,-13.1 -32.3,-25.3 -49.5,-36.4 144.6,143.5 228.3,451.1 228.3,451.1 l -34,260.5 c -233.2,236.3 -132.8,502.2 -132.8,502.2 -390.1,-109.5 -521.5,131.2 -521.5,131.2 -123.4,-15.9 -253.1,46.3 -253.1,46.3 171.5,304.6 606,318.7 841.6,81.4 197.8,-197.6 265.4,-469.9 231.1,-765.9" /><path
         id="path184"
         style="fill:#f99370;fill-opacity:1;fill-rule:nonzero;stroke:none"
         d="m 15006.7,9027.6 c 0,0 8.1,-112.7 0.6,-209.2 l 263.1,-96.4 139.8,58.8 c 0,0 -13.1,108 34.2,233.3 47.3,125.3 -437.7,13.5 -437.7,13.5" /><path
         id="path186"
         style="fill:#c16256;fill-opacity:1;fill-rule:nonzero;stroke:none"
         d="m 13146.7,14239.6 c -13.8,-0.5 -19.2,20 -6.3,26 8.5,-3.6 334.6,189.6 333.8,155.1 3.4,-6.8 0.7,-15.1 -6,-18.6 -7.5,-2.1 -313.2,-163.2 -321.5,-162.5" /><path
         id="path188"
         style="fill:#c16256;fill-opacity:1;fill-rule:nonzero;stroke:none"
         d="m 13195.5,14415 c -66.6,0.8 -170.2,45.7 -86,104.9 68.7,37.2 119.3,179.7 119.8,181.2 5.7,16.8 32.2,7.7 26,-9.1 -2.2,-6.3 -54.6,-154 -132.6,-196.3 -54,-33.1 58.4,-65.1 104.8,-48.7 7.3,2.3 15,-1.7 17.3,-8.9 4,-24.8 -32.1,-21.3 -49.3,-23.1" /><path
         id="path190"
         style="fill:#1d3f70;fill-opacity:1;fill-rule:nonzero;stroke:none"
         d="m 15115.8,9153.1 c -82.1,-70 -205.2,-124.7 -355.9,-165.9 v -0.1 c -863.9,-236.6 -2635,-30.8 -2781.2,273.7 -116.8,243.3 -124.7,1002.8 40.4,1809.2 218.5,1119.7 561.9,1908.5 1343.7,2455.1 -3.9,-15.9 -103.6,-430.3 538.3,-19.9 l 197.3,-35.2 c 66.5,-1073.2 1513.3,-3820.4 1017.4,-4316.9" /><path
         id="path192"
         style="fill:#8c4225;fill-opacity:1;fill-rule:nonzero;stroke:none"
         d="m 14122.9,15536.4 -4,-8 c -129.8,154 -366.2,229.3 -420.4,386.1 0,0 -80.2,-150.3 -70.8,-318.2 -63,70.5 -120.6,147.8 -165.8,230.6 -63.7,-64.3 -97.8,-138 -108.1,-213.7 -202.3,44.1 -379.7,-37.1 -379.7,-37.1 104,-293.8 346.6,-358.5 536.8,-359.6 152.8,-146.2 393.7,-215.1 630.1,-84 -130.1,-109.3 -145.6,-449 210.4,-688.2 0,0 61.7,206.5 48.4,398.7 333.6,578.4 -276.9,693.4 -276.9,693.4" /><path
         id="path194"
         style="fill:#f99370;fill-opacity:1;fill-rule:nonzero;stroke:none"
         d="m 14455.9,14410.3 c -62.3,-274 -390.2,-204.7 -336.2,71.1 62.3,274 390.1,204.7 336.2,-71.1" /><path
         id="path196"
         style="fill:#c16256;fill-opacity:1;fill-rule:nonzero;stroke:none"
         d="m 14369.2,14353.8 c -9.1,-0.1 -16,9.2 -13.2,17.8 50.8,147.7 -9.5,205.4 -110.4,166.1 -16.5,-6.7 -26.7,19.4 -10,25.7 114.8,46.8 208.9,-25.8 146.8,-199.8 -1.9,-5.9 -7.3,-9.8 -13.2,-9.8" /><path
         id="path198"
         style="fill:#c16256;fill-opacity:1;fill-rule:nonzero;stroke:none"
         d="m 14240.6,14373.1 c -42.8,3.4 38.8,135.4 143.2,142.4 7.7,0.5 14.2,-5.2 14.7,-12.8 0.5,-7.6 -5.3,-14.1 -12.8,-14.6 -106.5,-11 -119.9,-111.5 -145.1,-115" /><path
         id="path200"
         style="fill:#d1a68f;fill-opacity:1;fill-rule:nonzero;stroke:none"
         d="m 13065.6,2614.9 c 1.3,1.1 -82.9,-28.7 -196.8,-49 0,0 320.3,4468.5 368,5064.8 47.7,596.3 248.3,696.6 248.3,696.6 0,0 -424.8,-5615.9 -419.5,-5712.4" /><path
         id="path202"
         style="fill:#d1a68f;fill-opacity:1;fill-rule:nonzero;stroke:none"
         d="m 13078.2,2831.6 c -8.6,-128.9 -13.2,-206 -12.6,-216.7 -227,-71.1 -682.7,-156.6 -937.7,15.4 0,0 -8.1,70.8 -21.3,201.3 0,0 446.8,-192.4 971.6,0" /><path
         id="path204"
         style="fill:#d1a68f;fill-opacity:1;fill-rule:nonzero;stroke:none"
         d="m 15261.4,2604.1 c 0,0 -637.4,-144.9 -965.7,10.8 0,0 -13.6,77.7 -37.3,216.7 0,0 434.4,-117.8 996.1,0 2.5,-135.5 4.8,-216.2 6.9,-227.5" /><path
         id="path206"
         style="fill:#163860;fill-opacity:1;fill-rule:nonzero;stroke:none"
         d="m 6611.24,2591 c 0,0 609.13,-226.9 871.83,-11.9 0,0 11.85,71.6 30.71,204.3 0,0 -456.96,-157.8 -889.44,75.7 l -0.16,-0.1 c -3.28,-89.8 -7.64,-179.1 -12.94,-268" /><path
         id="path208"
         style="fill:#163860;fill-opacity:1;fill-rule:nonzero;stroke:none"
         d="m 4349.66,2555.1 c 0,0 472.4,-175.1 800.73,-31.8 0,0 19.18,93.6 52.23,260.1 0,0 -294.97,-154.1 -809.93,37.7 -14.19,-106.3 -28.69,-195.8 -43.03,-266" /><path
         id="path210"
         style="fill:#163860;fill-opacity:1;fill-rule:nonzero;stroke:none"
         d="m 6624.18,2859 c -3.28,-89.8 -7.64,-179.1 -12.94,-268 0,0 67.66,-25.3 167.75,-50.8 -2.23,1603.1 -0.42,4190.4 -652.96,5282.9 0,0 592,-2449.3 498.15,-4964.1" /><path
         id="path212"
         style="fill:#163860;fill-opacity:1;fill-rule:nonzero;stroke:none"
         d="m 6126.04,7793.4 c -77.39,3.7 47.34,237.2 92.98,530.3 7.19,37.7 66.58,25.8 58.21,-12 -75.83,-302.1 -94.5,-497.8 -151.19,-518.3" /><path
         id="path214"
         style="fill:#f99370;fill-opacity:1;fill-rule:nonzero;stroke:none"
         d="m 8563.46,10729.9 c 253.35,132 518.73,102.6 914.48,-39.6 137.67,-16.8 230.02,-274.5 8.85,-316.3 -323.07,-61.1 -738.66,23.5 -738.66,23.5 l -184.67,332.4" /><path
         id="path216"
         style="fill:#e57d61;fill-opacity:1;fill-rule:nonzero;stroke:none"
         d="m 8974.82,10672 c 120.68,115.3 290.28,172.2 456.1,166.7 104.91,2.8 177.13,-154.4 71.93,-154.1 -130.82,22.2 -340.37,-3.8 -452.44,-79.1 -47.87,-49.3 -123.76,15.3 -75.59,66.5" /><path
         id="path218"
         style="fill:#e57d61;fill-opacity:1;fill-rule:nonzero;stroke:none"
         d="m 9093.29,10371.6 c -50.73,-90.1 -158.44,-27.9 -105.79,61.1 50.72,90.1 158.44,27.9 105.79,-61.1" /><path
         id="path220"
         style="fill:#e57d61;fill-opacity:1;fill-rule:nonzero;stroke:none"
         d="m 9200.5,10360.7 c -50.73,-90.1 -158.44,-27.9 -105.79,61.1 50.72,90 158.44,27.9 105.79,-61.1" /><path
         id="path222"
         style="fill:#e57d61;fill-opacity:1;fill-rule:nonzero;stroke:none"
         d="m 9309.95,10349.8 c -50.73,-90.1 -158.44,-27.9 -105.79,61.1 50.73,90 158.44,27.9 105.79,-61.1" /><path
         id="path224"
         style="fill:#e57d61;fill-opacity:1;fill-rule:nonzero;stroke:none"
         d="m 9421.2,10349.8 c -50.73,-90.1 -158.44,-27.9 -105.79,61.1 50.73,90 158.44,27.9 105.79,-61.1" /><path
         id="path226"
         style="fill:#f4d4be;fill-opacity:1;fill-rule:nonzero;stroke:none"
         d="m 14098.5,13470 c 3.4,-244.8 -624.7,-461 -660.3,-461.3 l -75.3,222.8 c -96.7,-23.9 -181.8,-159.2 -181.8,-159.2 -277.1,275.2 -23.7,490.3 181.8,453.1 0,0 0,-0.2 -0.2,-0.3 -3.8,-15.8 -47.6,-379.2 536,-7.2 75.1,34.7 199.8,-47.9 199.8,-47.9" /><g
         transform="scale(1.03952)"
         id="g228"><path
           id="path230"
           style="fill:#8c4225;fill-opacity:1;fill-rule:nonzero;stroke:none"
           d="m 16300,5709.84 -2861.3,-412.79 -300.9,2085.86 2861.4,412.69 300.8,-2085.76" /></g><path
         id="path232"
         style="fill:#7f341c;fill-opacity:1;fill-rule:nonzero;stroke:none"
         d="m 13969.8,5506.4 -171.5,98.2 -313.2,2168.2 171.6,-98.2 313.1,-2168.2" /><g
         transform="scale(1.02034)"
         id="g234"><path
           id="path236"
           style="fill:#7f341c;fill-opacity:1;fill-rule:nonzero;stroke:none"
           d="m 13216.3,7617.87 2916.1,419.96 167.6,-95.65 -2915.5,-420.55 -168.2,96.24" /></g><path
         id="path238"
         style="fill:#8c4225;fill-opacity:1;fill-rule:nonzero;stroke:none"
         d="m 15710.8,8093.4 c -291.4,598.2 -1045.4,429.3 -1214.3,-174.9 -3,-49.3 30,-93.8 72.8,-87.3 51.2,8.6 57.3,71.1 79.1,109.1 121.5,275.5 453.4,454.9 729.3,295.5 84.6,-45.6 161.3,-121.6 215,-207.6 45.5,-72.6 131.3,-6.6 118.1,65.2" /><g
         transform="scale(1.02034)"
         id="g240"><path
           id="path242"
           style="fill:#99452b;fill-opacity:1;fill-rule:nonzero;stroke:none"
           d="M 13384.5,7521.63 14995.6,6669.46 16300,7942.18 13384.5,7521.63" /></g><path
         id="path244"
         style="fill:#f4d4be;fill-opacity:1;fill-rule:nonzero;stroke:none"
         d="m 15343.9,6619.8 c -68.3,-19.9 -146.8,12.6 -157,88.5 -10.2,90.2 -68.6,262.1 70.5,282.1 68.3,19.8 146.8,-12.7 157,-88.5 10.1,-90.3 68.6,-262.1 -70.5,-282.1" /><path
         id="path246"
         style="fill:#f99370;fill-opacity:1;fill-rule:nonzero;stroke:none"
         d="m 15007.3,8818.4 c 0,0 -136.9,-294.2 -136.9,-612.4 l 452.4,-25.9 c 146.9,212.7 87.4,600.7 87.4,600.7 l -402.9,37.6" /><path
         id="path248"
         style="fill:#163860;fill-opacity:1;fill-rule:nonzero;stroke:none"
         d="m 15115.8,9153.1 c -82.1,-70 -205.2,-124.7 -355.9,-165.9 35.2,432.9 -35.3,1118.2 -339.7,1889.9 -304.4,771.6 -290.7,1565 -290.7,1565 l 224.6,-16.8 c 394.4,-1105.4 1122.9,-2963.9 761.7,-3272.2" /><path
         id="path250"
         style="fill:#1d3f70;fill-opacity:1;fill-rule:nonzero;stroke:none"
         d="m 14098.5,13470 c 1648.5,-364.5 2107.9,-2958.9 1311.7,-4689.2 0,0 -176.6,-58.8 -402.9,37.6 0,0 -7.7,1236.6 -507.8,2233.8 -500.1,997.2 -401,2417.8 -401,2417.8" /><path
         id="path252"
         style="fill:#ce3932;fill-opacity:1;fill-rule:nonzero;stroke:none"
         d="m 5180.9,1986 c -12.04,-54.1 -61.35,-96 -120.45,-95.9 h -581.39 c -58.96,-0.3 -108.16,41.9 -120.22,95.9 h 822.06" /><path
         id="path254"
         style="fill:#ce3932;fill-opacity:1;fill-rule:nonzero;stroke:none"
         d="m 8324.84,1986 c -1.01,-50.6 -43.22,-95.9 -98.94,-95.9 H 6759.74 c -5.04,32.8 -6.63,61.4 -4.95,95.9 h 1570.05" /><path
         id="path256"
         style="fill:#d1a68f;fill-opacity:1;fill-rule:nonzero;stroke:none"
         d="m 8234.46,8534.4 c 0,0 -134.09,-181.7 -360.69,-263 0,0 -63.22,34.5 -102.97,126.4 0,0 314.5,114.1 397.69,302.8 25.73,-26.9 65.97,-105.9 65.97,-166.2" /><path
         id="path258"
         style="fill:#e8c0a6;fill-opacity:1;fill-rule:nonzero;stroke:none"
         d="m 8474.56,10248.8 c -1035.6,-844.1 -3070.26,-989.9 -3711.51,265.4 -589.63,1165.8 197.64,2171.9 947.02,2290.7 -0.56,-0.1 247.82,-710 167.71,-1237 l 6.61,-477.1 c 308.58,-624.3 1900.91,-532.6 2485.7,-417.1 212.41,-211.6 104.47,-424.9 104.47,-424.9" /><path
         id="path260"
         style="fill:#d1a68f;fill-opacity:1;fill-rule:nonzero;stroke:none"
         d="m 8513.6,10268.8 c -53.05,-61.3 -116.94,-76.6 -156.45,-103.4 47.95,353.2 -131.93,484.1 -131.93,484.1 78.22,37 166.35,24.2 166.35,24.2 171.89,-165.4 122.03,-404.9 122.03,-404.9" /><path
         id="path262"
         style="fill:#d1a68f;fill-opacity:1;fill-rule:nonzero;stroke:none"
         d="m 5707.85,12866.9 c 0,0 -212.47,-40.4 -337.41,-186.9 0,0 215.56,-462.5 369.39,-669.5 -186.95,-329.9 43.87,-766.5 144.56,-919.7 0,0 156.02,1059 -176.54,1776.1" /><path
         id="path264"
         style="fill:#d1a68f;fill-opacity:1;fill-rule:nonzero;stroke:none"
         d="m 7347.41,10564.7 c -119.64,0 -199.62,4.1 -201.13,4.2 -21.76,1 -20.12,34.9 1.81,33.7 2.88,-0.1 290.98,-15.1 594.17,12.4 9.21,0.9 17.5,-6 18.34,-15.3 0.84,-9.3 -6.01,-17.5 -15.29,-18.3 -146,-13.2 -288.53,-16.7 -397.9,-16.7" /><path
         id="path266"
         style="fill:#d1a68f;fill-opacity:1;fill-rule:nonzero;stroke:none"
         d="m 7288.96,9664.3 c -104.09,40.5 363.51,109.7 595.56,250 8.27,4.3 18.47,1.1 22.8,-7.2 4.33,-8.2 1.15,-18.4 -7.11,-22.8 -251.29,-130 -599.75,-218.7 -611.25,-220" /><path
         id="path268"
         style="fill:#e57d61;fill-opacity:1;fill-rule:nonzero;stroke:none"
         d="m 9467.58,10585.7 c -131.43,4.4 -326.35,1 -264.45,35.4 2.37,-0.3 238.21,-22.9 390.77,-7.6 58.33,-33.8 -104.89,-26.2 -126.32,-27.8" /><path
         id="path270"
         style="fill:#e57d61;fill-opacity:1;fill-rule:nonzero;stroke:none"
         d="m 9420.26,10490.8 c -3.2,0.6 -280.3,0.9 -208.5,38.4 231.04,-35.5 403.55,-0.5 405.28,-0.1 55.53,-27.4 -70.88,-36.2 -196.78,-38.3" /><path
         id="path272"
         style="fill:#f99370;fill-opacity:1;fill-rule:nonzero;stroke:none"
         d="m 14988.8,8180.1 c -48.1,-91.5 -157.6,-32.4 -107.5,58 48.1,91.5 157.5,32.5 107.5,-58" /><path
         id="path274"
         style="fill:#f99370;fill-opacity:1;fill-rule:nonzero;stroke:none"
         d="m 15096.3,8172.3 c -48.1,-91.5 -157.6,-32.4 -107.5,58 48,91.5 157.5,32.5 107.5,-58" /><path
         id="path276"
         style="fill:#f99370;fill-opacity:1;fill-rule:nonzero;stroke:none"
         d="m 15206,8164.6 c -48.1,-91.5 -157.6,-32.5 -107.5,58 48.1,91.5 157.5,32.4 107.5,-58" /><path
         id="path278"
         style="fill:#f99370;fill-opacity:1;fill-rule:nonzero;stroke:none"
         d="m 15317.2,8167.8 c -48.1,-91.5 -157.6,-32.5 -107.5,58 48.1,91.5 157.5,32.4 107.5,-58" /><path
         id="path280"
         style="fill:#ce3932;fill-opacity:1;fill-rule:nonzero;stroke:none"
         d="m 6376.12,12731.2 c -25.61,-307.6 -566.95,-105.6 -591.87,-65.7 -8.01,21.2 -89.19,170.6 -75.42,191.8 l 539.19,-32.2 c 0,0 49.3,-31.9 128.1,-93.9" /><path
         id="path282"
         style="fill:#163260;fill-opacity:1;fill-rule:nonzero;stroke:none"
         d="m 5675.31,15014.6 c 661.46,102.9 1307.18,-719.9 932.01,-1461.5 l -932.01,1461.5" /><path
         id="path284"
         style="fill:#f99370;fill-opacity:1;fill-rule:nonzero;stroke:none"
         d="m 6248.06,12825.1 c 33.15,289.1 -12.07,705.9 -52.39,877.6 -76.67,338.9 -606.04,209.8 -520.1,-125.2 17.3,10.9 33.24,-720.2 33.24,-720.2 86.29,-137.1 539.29,-253.1 539.25,-32.2" /><path
         id="path286"
         style="fill:#e57d61;fill-opacity:1;fill-rule:nonzero;stroke:none"
         d="m 5705.32,12993.7 c 230.74,-105 505.94,-50.6 553.03,-40.9 76.71,1175.6 -522.97,1295.9 -553.03,40.9" /><path
         id="path288"
         style="fill:#f99370;fill-opacity:1;fill-rule:nonzero;stroke:none"
         d="m 5307.86,13831.5 c 38.74,-240.4 119.9,-511.3 309.79,-670.4 h 0.31 c 76.7,-63.7 170.19,-104.2 269.25,-123.7 560.97,-156.9 1218.84,495.2 780.46,970.2 -159.3,147.2 -193.1,408 -320.07,554.4 -184.65,267.9 -589.88,254.1 -808.69,35.5 -197.75,-197.6 -265.36,-469.9 -231.05,-766" /><path
         id="path290"
         style="fill:#f9f8f3;fill-opacity:1;fill-rule:nonzero;stroke:none"
         d="m 6464.41,13553.1 -315.24,161.1 c -28.76,-191.4 170.74,-313.6 315.24,-161.1" /><path
         id="path292"
         style="fill:#c16256;fill-opacity:1;fill-rule:nonzero;stroke:none"
         d="m 6225.33,13979.8 c 22,41.8 -44.12,75.4 -64.89,33 -22,-41.8 44.13,-75.4 64.89,-33" /><path
         id="path294"
         style="fill:#c16256;fill-opacity:1;fill-rule:nonzero;stroke:none"
         d="m 6531.27,14031.2 c 22,41.8 -44.12,75.4 -64.89,33 -22,-41.8 44.13,-75.4 64.89,-33" /><path
         id="path296"
         style="fill:#c16256;fill-opacity:1;fill-rule:nonzero;stroke:none"
         d="m 6464.4,13539.4 c -7.84,-1 -314.45,160.6 -321.5,162.5 -6.76,3.5 -9.45,11.8 -5.99,18.5 -2.33,35.2 326.82,-159.3 333.77,-155 12.79,-6 7.65,-26.6 -6.28,-26" /><path
         id="path298"
         style="fill:#c16256;fill-opacity:1;fill-rule:nonzero;stroke:none"
         d="m 6415.58,13714.8 c -17.25,1.7 -53.23,-1.6 -49.32,23 2.33,7.3 10.11,11.2 17.32,9 46.38,-16.5 158.75,15.7 104.85,48.6 -78.06,42.3 -130.47,190.1 -132.66,196.3 -6.12,16.7 20.33,26.2 26,9.1 0.5,-1.4 51.07,-143.9 119.77,-181.1 84.29,-59.3 -19.37,-104.1 -85.96,-104.9" /><path
         id="path300"
         style="fill:#e57d61;fill-opacity:1;fill-rule:nonzero;stroke:none"
         d="m 5307.86,13831.5 c 38.74,-240.4 119.9,-511.3 309.79,-670.4 h 0.31 c -105.24,130.7 -170.88,423 -170.88,423 l 49.74,130.1 c 834.72,269.4 763.16,939.8 763.16,939.8 -124.53,108.8 -292.65,130.8 -452.6,91 -391.88,-101.3 -548.83,-524.6 -499.52,-913.5" /><path
         id="path302"
         style="fill:#163260;fill-opacity:1;fill-rule:nonzero;stroke:none"
         d="m 6171.27,14713.6 c -42.08,27.5 -83.25,50.9 -123.52,70.6 29.55,88.9 34.74,199.2 3.48,327.8 -173.21,629.5 -906.08,439.6 -751.85,-194.8 18.64,-67.7 43.78,-125.9 73.57,-175.1 -216.61,-183.8 -291.86,-533.9 -149.64,-813 l 268.11,-147.9 c 747.02,271.3 679.85,932.4 679.85,932.4" /><path
         id="path304"
         style="fill:#f99370;fill-opacity:1;fill-rule:nonzero;stroke:none"
         d="m 5155.17,13710.1 c 62.33,-274.1 390.17,-204.7 336.25,71.1 -62.33,274 -390.17,204.7 -336.25,-71.1" /><path
         id="path306"
         style="fill:#c16256;fill-opacity:1;fill-rule:nonzero;stroke:none"
         d="m 5241.89,13653.6 c -5.9,0 -11.35,3.8 -13.16,9.8 -62.26,174 32.23,246.7 146.74,199.7 16.67,-6.3 6.51,-32.3 -10.04,-25.6 -101.04,39.2 -161.07,-18.4 -110.36,-166.1 2.8,-8.6 -4.12,-17.9 -13.18,-17.8" /><path
         id="path308"
         style="fill:#c16256;fill-opacity:1;fill-rule:nonzero;stroke:none"
         d="m 5370.45,13672.9 c -24.98,3.3 -38.77,104.1 -145.03,114.9 -7.59,0.5 -13.34,7.1 -12.83,14.7 0.5,7.6 7.17,13.3 14.65,12.8 104.44,-7.1 185.92,-138.9 143.21,-142.4" /><path
         id="path310"
         style="fill:#f4d4be;fill-opacity:1;fill-rule:nonzero;stroke:none"
         d="m 5305.7,13584.1 c -0.58,-40.2 62.42,-40.2 61.83,0 0.59,40.1 -62.42,40.1 -61.83,0" /><path
         id="path312"
         style="fill:#d1a68f;fill-opacity:1;fill-rule:nonzero;stroke:none"
         d="m 6252.18,12866.9 c 0,0 647.23,-302.5 757.28,-806.5 0,0 288.08,-285.6 157.3,-837.4 0,0 -316.59,1020 -918.7,1602.1 l 4.12,41.8" /><path
         id="path314"
         style="fill:#ce3932;fill-opacity:1;fill-rule:nonzero;stroke:none"
         d="m 6346.25,12415.7 c 1.08,-74.6 -116.06,-74.6 -114.97,0 -1.09,74.6 116.06,74.6 114.97,0" /><path
         id="path316"
         style="fill:#ce3932;fill-opacity:1;fill-rule:nonzero;stroke:none"
         d="m 6461.2,12168.5 c 1.09,-74.6 -116.06,-74.6 -114.95,0 -1.1,74.6 116.05,74.6 114.95,0" /><path
         id="path318"
         style="fill:#ce3932;fill-opacity:1;fill-rule:nonzero;stroke:none"
         d="m 6576.16,11901.2 c 1.09,-74.5 -116.06,-74.5 -114.96,0 -1.09,74.6 116.06,74.6 114.96,0" /><path
         id="path320"
         style="fill:#e57d61;fill-opacity:1;fill-rule:nonzero;stroke:none"
         d="m 14979.2,8154.2 c -27.1,2.7 6.9,138.3 27.9,235.3 1.7,6 8,9.5 13.9,7.8 6,-1.7 9.5,-8 7.8,-13.9 -33.4,-100.5 -25.5,-223.2 -49.6,-229.2" /><path
         id="path322"
         style="fill:#e57d61;fill-opacity:1;fill-rule:nonzero;stroke:none"
         d="m 15087.4,8154.2 c -27.7,2.7 11.1,129.7 32.7,225.7 1.7,5.9 8,9.4 14,7.6 5.9,-1.8 9.3,-8 7.6,-14 -33.6,-97.1 -30.8,-212.4 -54.3,-219.3" /><path
         id="path324"
         style="fill:#e57d61;fill-opacity:1;fill-rule:nonzero;stroke:none"
         d="m 15206,8153.3 c -30,6.5 24.6,114.5 20.7,223.6 0.1,6.2 5.3,11.2 11.5,11 6.2,-0.1 11.2,-5.2 11,-11.4 -1.9,-97.6 -31.1,-210 -32.3,-214.8 -1.4,-5 -5.9,-8.4 -10.9,-8.4" /></g></g></svg>