<svg id="visual" viewBox="0 0 900 600" width="900" height="600" xmlns="http://www.w3.org/2000/svg" xmlns:xlink="http://www.w3.org/1999/xlink" version="1.1"><rect x="0" y="0" width="900" height="600" fill="#001220"></rect><path d="M0 358L21.5 364C43 370 86 382 128.8 380.8C171.7 379.7 214.3 365.3 257.2 365.2C300 365 343 379 385.8 380.3C428.7 381.7 471.3 370.3 514.2 378.2C557 386 600 413 642.8 424.8C685.7 436.7 728.3 433.3 771.2 430.8C814 428.3 857 426.7 878.5 425.8L900 425L900 601L878.5 601C857 601 814 601 771.2 601C728.3 601 685.7 601 642.8 601C600 601 557 601 514.2 601C471.3 601 428.7 601 385.8 601C343 601 300 601 257.2 601C214.3 601 171.7 601 128.8 601C86 601 43 601 21.5 601L0 601Z" fill="#1919bd"></path><path d="M0 412L21.5 414.7C43 417.3 86 422.7 128.8 422.7C171.7 422.7 214.3 417.3 257.2 419.5C300 421.7 343 431.3 385.8 430.7C428.7 430 471.3 419 514.2 418.5C557 418 600 428 642.8 438.2C685.7 448.3 728.3 458.7 771.2 462.8C814 467 857 465 878.5 464L900 463L900 601L878.5 601C857 601 814 601 771.2 601C728.3 601 685.7 601 642.8 601C600 601 557 601 514.2 601C471.3 601 428.7 601 385.8 601C343 601 300 601 257.2 601C214.3 601 171.7 601 128.8 601C86 601 43 601 21.5 601L0 601Z" fill="#0f159d"></path><path d="M0 439L21.5 443.5C43 448 86 457 128.8 460.5C171.7 464 214.3 462 257.2 461.8C300 461.7 343 463.3 385.8 468.5C428.7 473.7 471.3 482.3 514.2 479.7C557 477 600 463 642.8 455C685.7 447 728.3 445 771.2 447C814 449 857 455 878.5 458L900 461L900 601L878.5 601C857 601 814 601 771.2 601C728.3 601 685.7 601 642.8 601C600 601 557 601 514.2 601C471.3 601 428.7 601 385.8 601C343 601 300 601 257.2 601C214.3 601 171.7 601 128.8 601C86 601 43 601 21.5 601L0 601Z" fill="#07117e"></path><path d="M0 502L21.5 504.8C43 507.7 86 513.3 128.8 510.7C171.7 508 214.3 497 257.2 498.8C300 500.7 343 515.3 385.8 521C428.7 526.7 471.3 523.3 514.2 524C557 524.7 600 529.3 642.8 526.2C685.7 523 728.3 512 771.2 512.5C814 513 857 525 878.5 531L900 537L900 601L878.5 601C857 601 814 601 771.2 601C728.3 601 685.7 601 642.8 601C600 601 557 601 514.2 601C471.3 601 428.7 601 385.8 601C343 601 300 601 257.2 601C214.3 601 171.7 601 128.8 601C86 601 43 601 21.5 601L0 601Z" fill="#040c60"></path><path d="M0 571L21.5 571.2C43 571.3 86 571.7 128.8 570.3C171.7 569 214.3 566 257.2 560C300 554 343 545 385.8 543.2C428.7 541.3 471.3 546.7 514.2 549.2C557 551.7 600 551.3 642.8 553C685.7 554.7 728.3 558.3 771.2 560.2C814 562 857 562 878.5 562L900 562L900 601L878.5 601C857 601 814 601 771.2 601C728.3 601 685.7 601 642.8 601C600 601 557 601 514.2 601C471.3 601 428.7 601 385.8 601C343 601 300 601 257.2 601C214.3 601 171.7 601 128.8 601C86 601 43 601 21.5 601L0 601Z" fill="#050544"></path></svg>