<svg id="visual" viewBox="0 0 900 600" width="900" height="600" xmlns="http://www.w3.org/2000/svg" xmlns:xlink="http://www.w3.org/1999/xlink" version="1.1"><rect x="0" y="0" width="900" height="600" fill="#FFF"></rect><path d="M0 117L21.5 129.2C43 141.3 86 165.7 128.8 163.3C171.7 161 214.3 132 257.2 131.3C300 130.7 343 158.3 385.8 161C428.7 163.7 471.3 141.3 514.2 157C557 172.7 600 226.3 642.8 249.8C685.7 273.3 728.3 266.7 771.2 261.8C814 257 857 254 878.5 252.5L900 251L900 601L878.5 601C857 601 814 601 771.2 601C728.3 601 685.7 601 642.8 601C600 601 557 601 514.2 601C471.3 601 428.7 601 385.8 601C343 601 300 601 257.2 601C214.3 601 171.7 601 128.8 601C86 601 43 601 21.5 601L0 601Z" fill="#21b7df"></path><path d="M0 226L21.5 231.3C43 236.7 86 247.3 128.8 247.3C171.7 247.3 214.3 236.7 257.2 240.8C300 245 343 264 385.8 262.3C428.7 260.7 471.3 238.3 514.2 237.3C557 236.3 600 256.7 642.8 277.2C685.7 297.7 728.3 318.3 771.2 326.7C814 335 857 331 878.5 329L900 327L900 601L878.5 601C857 601 814 601 771.2 601C728.3 601 685.7 601 642.8 601C600 601 557 601 514.2 601C471.3 601 428.7 601 385.8 601C343 601 300 601 257.2 601C214.3 601 171.7 601 128.8 601C86 601 43 601 21.5 601L0 601Z" fill="#00abea"></path><path d="M0 279L21.5 288.2C43 297.3 86 315.7 128.8 322.7C171.7 329.7 214.3 325.3 257.2 324.7C300 324 343 327 385.8 337.5C428.7 348 471.3 366 514.2 360.7C557 355.3 600 326.7 642.8 310.5C685.7 294.3 728.3 290.7 771.2 294.7C814 298.7 857 310.3 878.5 316.2L900 322L900 601L878.5 601C857 601 814 601 771.2 601C728.3 601 685.7 601 642.8 601C600 601 557 601 514.2 601C471.3 601 428.7 601 385.8 601C343 601 300 601 257.2 601C214.3 601 171.7 601 128.8 601C86 601 43 601 21.5 601L0 601Z" fill="#009cf1"></path><path d="M0 405L21.5 410.7C43 416.3 86 427.7 128.8 422.2C171.7 416.7 214.3 394.3 257.2 398.2C300 402 343 432 385.8 443.5C428.7 455 471.3 448 514.2 449C557 450 600 459 642.8 452.7C685.7 446.3 728.3 424.7 771.2 426C814 427.3 857 451.7 878.5 463.8L900 476L900 601L878.5 601C857 601 814 601 771.2 601C728.3 601 685.7 601 642.8 601C600 601 557 601 514.2 601C471.3 601 428.7 601 385.8 601C343 601 300 601 257.2 601C214.3 601 171.7 601 128.8 601C86 601 43 601 21.5 601L0 601Z" fill="#008bf4"></path><path d="M0 543L21.5 543.3C43 543.7 86 544.3 128.8 541.8C171.7 539.3 214.3 533.7 257.2 521.5C300 509.3 343 490.7 385.8 486.8C428.7 483 471.3 494 514.2 499.3C557 504.7 600 504.3 642.8 507.7C685.7 511 728.3 518 771.2 521.5C814 525 857 525 878.5 525L900 525L900 601L878.5 601C857 601 814 601 771.2 601C728.3 601 685.7 601 642.8 601C600 601 557 601 514.2 601C471.3 601 428.7 601 385.8 601C343 601 300 601 257.2 601C214.3 601 171.7 601 128.8 601C86 601 43 601 21.5 601L0 601Z" fill="#0578f3"></path></svg>