<svg id="visual" viewBox="0 0 900 450" width="900" height="450" xmlns="http://www.w3.org/2000/svg" xmlns:xlink="http://www.w3.org/1999/xlink" version="1.1"><rect x="0" y="0" width="900" height="450" fill="#fff"></rect><defs><linearGradient id="grad1_0" x1="50%" y1="0%" x2="100%" y2="100%"><stop offset="10%" stop-color="#ffffff" stop-opacity="1"></stop><stop offset="90%" stop-color="#ffffff" stop-opacity="1"></stop></linearGradient></defs><defs><linearGradient id="grad2_0" x1="0%" y1="0%" x2="50%" y2="100%"><stop offset="10%" stop-color="#ffffff" stop-opacity="1"></stop><stop offset="90%" stop-color="#ffffff" stop-opacity="1"></stop></linearGradient></defs><g transform="translate(900, 0)"><path d="M0 315C-17.5 278.6 -35.1 242.1 -65 242.4C-94.9 242.8 -137.1 279.8 -157.5 272.8C-177.9 265.8 -176.4 214.6 -185.3 185.3C-194.2 155.9 -213.4 148.5 -233 134.5C-252.5 120.5 -272.2 100.1 -285.9 76.6C-299.6 53.1 -307.3 26.6 -315 0L0 0Z" fill="#0578f3"></path></g><g transform="translate(0, 450)"><path d="M0 -315C24.3 -294.7 48.5 -274.4 69.9 -260.8C91.3 -247.2 109.8 -240.1 137.5 -238.2C165.2 -236.2 202.2 -239.2 222.7 -222.7C243.3 -206.3 247.5 -170.3 242.5 -140C237.5 -109.7 223.2 -85 233.8 -62.6C244.3 -40.2 279.7 -20.1 315 0L0 0Z" fill="#0578f3"></path></g></svg>