<svg id="visual" viewBox="0 0 900 450" width="900" height="450" xmlns="http://www.w3.org/2000/svg" xmlns:xlink="http://www.w3.org/1999/xlink" version="1.1"><rect x="0" y="0" width="900" height="450" fill="#fff"></rect><defs><linearGradient id="grad1_0" x1="50%" y1="0%" x2="100%" y2="100%"><stop offset="10%" stop-color="#ffffff" stop-opacity="1"></stop><stop offset="90%" stop-color="#ffffff" stop-opacity="1"></stop></linearGradient></defs><defs><linearGradient id="grad2_0" x1="0%" y1="0%" x2="50%" y2="100%"><stop offset="10%" stop-color="#ffffff" stop-opacity="1"></stop><stop offset="90%" stop-color="#ffffff" stop-opacity="1"></stop></linearGradient></defs><g transform="translate(900, 0)"><path d="M0 450C-30.9 400.8 -61.8 351.6 -87.2 325.5C-112.6 299.5 -132.4 296.6 -177 306.6C-221.6 316.6 -290.8 339.4 -318.2 318.2C-345.6 297 -331.1 231.6 -323.9 187C-316.7 142.4 -316.8 118.6 -339 90.8C-361.3 63.1 -405.6 31.6 -450 0L0 0Z" fill="#0578f3"></path></g><g transform="translate(0, 450)"><path d="M0 -450C44.3 -455.1 88.6 -460.2 114.7 -427.9C140.7 -395.6 148.4 -326.1 170 -294.4C191.6 -262.8 227.2 -269.2 262.3 -262.3C297.4 -255.4 332 -235.3 362.9 -209.5C393.7 -183.7 420.8 -152.3 434.7 -116.5C448.6 -80.6 449.3 -40.3 450 0L0 0Z" fill="#0578f3"></path></g></svg>