<svg id="visual" viewBox="0 0 900 450" width="900" height="450" xmlns="http://www.w3.org/2000/svg" xmlns:xlink="http://www.w3.org/1999/xlink" version="1.1"><rect x="0" y="0" width="900" height="450" fill="#fff"></rect><defs><linearGradient id="grad1_0" x1="50%" y1="100%" x2="100%" y2="0%"><stop offset="10%" stop-color="#ffffff" stop-opacity="1"></stop><stop offset="90%" stop-color="#ffffff" stop-opacity="1"></stop></linearGradient></defs><defs><linearGradient id="grad2_0" x1="0%" y1="100%" x2="50%" y2="0%"><stop offset="10%" stop-color="#ffffff" stop-opacity="1"></stop><stop offset="90%" stop-color="#ffffff" stop-opacity="1"></stop></linearGradient></defs><g transform="translate(900, 450)"><path d="M-315 0C-278.6 -17.5 -242.1 -35.1 -242.4 -65C-242.8 -94.9 -279.8 -137.1 -272.8 -157.5C-265.8 -177.9 -214.6 -176.4 -185.3 -185.3C-155.9 -194.2 -148.5 -213.4 -134.5 -233C-120.5 -252.5 -100.1 -272.2 -76.6 -285.9C-53.1 -299.6 -26.6 -307.3 0 -315L0 0Z" fill="#0578f3"></path></g><g transform="translate(0, 0)"><path d="M315 0C294.7 24.3 274.4 48.5 260.8 69.9C247.2 91.3 240.1 109.8 238.2 137.5C236.2 165.2 239.2 202.2 222.7 222.7C206.3 243.3 170.3 247.5 140 242.5C109.7 237.5 85 223.2 62.6 233.8C40.2 244.3 20.1 279.7 0 315L0 0Z" fill="#0578f3"></path></g></svg>